<svg xmlns="http://www.w3.org/2000/svg" version="1.1" xmlns:xlink="http://www.w3.org/1999/xlink" xmlns:svgjs="http://svgjs.dev/svgjs" width="2000" height="2343" viewBox="0 0 2000 2343"><g transform="matrix(1,0,0,1,0.5066416252960835,0)"><svg viewBox="0 0 239 280" data-background-color="#1b4571" preserveAspectRatio="xMidYMid meet" height="2343" width="2000" xmlns="http://www.w3.org/2000/svg" xmlns:xlink="http://www.w3.org/1999/xlink"><g id="tight-bounds" transform="matrix(1,0,0,1,-0.06054367422288465,0)"><svg viewBox="0 0 239.12108734844577 280" height="280" width="239.12108734844577"><g><svg viewBox="0 0 278.2696 325.8411412560283" height="280" width="239.12108734844577"><g><svg viewBox="0 0 278.2696 325.8411412560283" height="325.8411412560283" width="278.2696"><g id="textblocktransform"><svg viewBox="0 0 278.2696 325.8411412560283" height="325.8411412560283" width="278.2696" id="textblock"><g><svg viewBox="0 0 278.2696 278.2696" height="278.2696" width="278.2696"><g transform="matrix(1,0,0,1,89.94321971048298,89.94321971048298)"><svg viewBox="0 0 98.38316057903407 98.38316057903407" height="98.38316057903407" width="98.38316057903407"><g><circle r="49" cx="49.191580289517034" cy="49.191580289517034" fill="#bf2051" data-fill-palette-color="accent"></circle></g></svg></g><g><path d="M139.892 28.712v0c-2.444 0.041-4.563-0.52-6.358-1.683-1.788-1.169-3.184-2.832-4.187-4.988-1.01-2.163-1.539-4.711-1.588-7.645v0c-0.052-3.099 0.418-5.711 1.41-7.834 0.992-2.116 2.379-3.729 4.163-4.839 1.783-1.109 3.811-1.683 6.082-1.72v0c3.053-0.051 5.496 0.664 7.33 2.143 1.833 1.487 3.068 3.43 3.704 5.831v0l-4.397 0.928c-0.543-1.601-1.389-2.872-2.538-3.813-1.142-0.942-2.488-1.399-4.037-1.374v0c-1.358 0.023-2.593 0.434-3.706 1.234-1.12 0.794-2.008 1.974-2.663 3.542-0.65 1.568-0.955 3.51-0.917 5.828v0c0.036 2.139 0.348 4.009 0.938 5.609 0.59 1.607 1.442 2.848 2.556 3.723 1.114 0.882 2.496 1.31 4.145 1.283v0c2.013-0.033 3.59-0.6 4.732-1.698 1.134-1.099 1.687-2.516 1.658-4.251v0l4.45-0.074c0.034 2.027-0.388 3.759-1.265 5.198-0.884 1.439-2.137 2.556-3.76 3.352-1.623 0.795-3.541 1.212-5.752 1.248z" fill="#ffffff" data-fill-palette-color="primary"></path><path d="M139.534 278.267v0c-2.49-0.042-4.626-0.688-6.407-1.937-1.787-1.243-3.156-2.982-4.104-5.217-0.949-2.229-1.399-4.84-1.348-7.833v0c0.053-3.152 0.621-5.789 1.704-7.911 1.083-2.128 2.551-3.723 4.404-4.784 1.853-1.068 3.935-1.583 6.246-1.544v0c3.106 0.053 5.567 0.863 7.382 2.431 1.815 1.574 3.003 3.595 3.564 6.062v0l-4.495 0.788c-0.502-1.645-1.321-2.967-2.457-3.967-1.129-1-2.482-1.513-4.058-1.539v0c-1.384-0.023-2.659 0.352-3.825 1.128-1.159 0.775-2.1 1.948-2.822 3.519-0.716 1.571-1.093 3.536-1.133 5.893v0c-0.037 2.179 0.219 4.094 0.767 5.747 0.542 1.652 1.364 2.945 2.468 3.877 1.104 0.933 2.497 1.414 4.179 1.442v0c2.046 0.035 3.668-0.488 4.866-1.567 1.197-1.073 1.811-2.493 1.841-4.261v0l4.52 0.077c-0.035 2.06-0.522 3.807-1.461 5.241-0.945 1.435-2.259 2.529-3.94 3.282-1.676 0.753-3.639 1.111-5.891 1.073z" fill="#ffffff" data-fill-palette-color="primary"></path><path d="M3.968 142.363c0-5.938 4.814-10.752 10.752-10.752 5.938 0 10.752 4.814 10.752 10.752 0 5.938-4.814 10.752-10.752 10.752-5.938 0-10.752-4.814-10.752-10.752z" fill="#ffffff" data-fill-palette-color="primary"></path><path d="M252.798 142.363c0-5.938 4.814-10.752 10.752-10.752 5.938 0 10.752 4.814 10.752 10.752 0 5.938-4.814 10.752-10.752 10.752-5.938 0-10.752-4.814-10.752-10.752z" fill="#ffffff" data-fill-palette-color="primary"></path></g></svg></g><g transform="matrix(1,0,0,1,53.1494936,296.09272000000004)"><svg viewBox="0 0 171.97061280000003 29.748421256028287" height="29.748421256028287" width="171.97061280000003"><g transform="matrix(1,0,0,1,0,0)"><svg width="171.97061280000003" viewBox="2.440000057220459 -26.389999389648438 200.25999450683594 34.63999938964844" height="29.748421256028287" data-palette-color="#ffffff"><path d="M28.54-6.35L28.54 0 11.33 0Q10.01 0 8.45-0.46 6.88-0.93 5.55-1.99 4.22-3.05 3.33-4.75 2.44-6.45 2.44-8.91L2.44-8.91 2.44-17.5Q2.44-18.41 2.65-19.41 2.86-20.41 3.3-21.4 3.74-22.39 4.43-23.29 5.13-24.19 6.12-24.88 7.1-25.56 8.4-25.98 9.69-26.39 11.33-26.39L11.33-26.39 28.54-26.39 28.54-20.04 11.33-20.04Q10.08-20.04 9.44-19.41 8.79-18.77 8.79-17.46L8.79-17.46 8.79-8.91Q8.79-7.67 9.45-7.01 10.11-6.35 11.38-6.35L11.38-6.35 28.54-6.35ZM60.86-17.65L60.86-8.74Q60.86-7.42 60.4-5.9 59.93-4.37 58.9-3.06 57.86-1.76 56.19-0.88 54.51 0 52.12 0L52.12 0 40.67 0Q39.35 0 37.83-0.46 36.3-0.93 35-1.97 33.69-3 32.81-4.68 31.93-6.35 31.93-8.74L31.93-8.74Q31.93-10.06 32.39-11.6 32.86-13.13 33.9-14.44 34.93-15.75 36.61-16.63 38.28-17.5 40.67-17.5L40.67-17.5 52.12-17.5 52.12-11.45 40.67-11.45Q39.38-11.45 38.67-10.66 37.96-9.86 37.96-8.69L37.96-8.69Q37.96-7.45 38.78-6.75 39.6-6.05 40.72-6.05L40.72-6.05 52.12-6.05Q53.42-6.05 54.12-6.84 54.83-7.62 54.83-8.79L54.83-8.79 54.83-17.65Q54.83-18.9 54.06-19.63 53.29-20.36 52.12-20.36L52.12-20.36 38.18-20.36 38.18-26.39 52.12-26.39Q53.44-26.39 54.97-25.93 56.49-25.46 57.8-24.43 59.1-23.39 59.98-21.72 60.86-20.04 60.86-17.65L60.86-17.65ZM95.38-17.5L95.38-8.91Q95.38-7.28 94.97-5.97 94.55-4.66 93.87-3.67 93.18-2.69 92.28-1.99 91.38-1.29 90.39-0.85 89.4-0.42 88.4-0.21 87.4 0 86.49 0L86.49 0 75.04 0 75.04-6.35 86.49-6.35Q87.76-6.35 88.4-7.01 89.03-7.67 89.03-8.91L89.03-8.91 89.03-17.46Q89.03-18.77 88.39-19.41 87.74-20.04 86.49-20.04L86.49-20.04 75.09-20.04Q73.8-20.04 73.14-19.4 72.48-18.75 72.48-17.5L72.48-17.5 72.48 8.25 66.13 8.25 66.13-17.5Q66.13-19.14 66.55-20.43 66.96-21.73 67.66-22.72 68.35-23.71 69.26-24.4 70.16-25.1 71.15-25.54 72.14-25.98 73.15-26.18 74.16-26.39 75.04-26.39L75.04-26.39 86.49-26.39Q88.13-26.39 89.42-25.98 90.72-25.56 91.71-24.88 92.7-24.19 93.39-23.29 94.09-22.39 94.53-21.4 94.97-20.41 95.17-19.41 95.38-18.41 95.38-17.5L95.38-17.5ZM124.36-17.5L124.36 0 118.01 0 118.01-17.5Q118.01-18.75 117.35-19.4 116.69-20.04 115.4-20.04L115.4-20.04 107.15-20.04 107.15 0 100.8 0 100.8-23.24Q100.8-23.9 101.04-24.48 101.29-25.05 101.73-25.48 102.17-25.9 102.75-26.15 103.34-26.39 104-26.39L104-26.39 115.45-26.39Q116.76-26.39 118.28-25.93 119.79-25.46 121.16-24.44L121.16-24.44 121.16-26.39 129.75-26.39Q130.66-26.39 131.66-26.18 132.66-25.98 133.65-25.54 134.64-25.1 135.54-24.4 136.44-23.71 137.13-22.72 137.81-21.73 138.22-20.43 138.64-19.14 138.64-17.5L138.64-17.5 138.64 0 132.29 0 132.29-17.5Q132.29-18.75 131.67-19.4 131.05-20.04 129.75-20.04L129.75-20.04 124.04-20.04Q124.36-18.87 124.36-17.5L124.36-17.5ZM172.87-17.65L172.87-17.65Q172.87-16.33 172.4-14.81 171.94-13.28 170.9-11.98 169.86-10.67 168.19-9.79 166.52-8.91 164.13-8.91L164.13-8.91 152.68-8.91 152.68-14.94 164.13-14.94Q165.42-14.94 166.13-15.73 166.84-16.53 166.84-17.7L166.84-17.7Q166.84-18.95 166.04-19.65 165.25-20.36 164.13-20.36L164.13-20.36 152.68-20.36Q151.38-20.36 150.67-19.57 149.97-18.77 149.97-17.6L149.97-17.6 149.97-8.74Q149.97-7.47 150.76-6.76 151.55-6.05 152.72-6.05L152.72-6.05 164.13-6.05 164.13 0 152.68 0Q151.36 0 149.83-0.46 148.31-0.93 147-1.97 145.69-3 144.81-4.68 143.94-6.35 143.94-8.74L143.94-8.74 143.94-17.65Q143.94-18.97 144.4-20.5 144.86-22.02 145.9-23.33 146.94-24.63 148.61-25.51 150.28-26.39 152.68-26.39L152.68-26.39 164.13-26.39Q165.44-26.39 166.97-25.93 168.5-25.46 169.8-24.43 171.11-23.39 171.99-21.72 172.87-20.04 172.87-17.65ZM202.7-6.35L202.7 0 185.49 0Q184.17 0 182.6-0.46 181.04-0.93 179.71-1.99 178.38-3.05 177.49-4.75 176.6-6.45 176.6-8.91L176.6-8.91 176.6-17.5Q176.6-18.41 176.81-19.41 177.01-20.41 177.45-21.4 177.89-22.39 178.59-23.29 179.28-24.19 180.27-24.88 181.26-25.56 182.56-25.98 183.85-26.39 185.49-26.39L185.49-26.39 202.7-26.39 202.7-20.04 185.49-20.04Q184.24-20.04 183.59-19.41 182.95-18.77 182.95-17.46L182.95-17.46 182.95-8.91Q182.95-7.67 183.61-7.01 184.26-6.35 185.53-6.35L185.53-6.35 202.7-6.35Z" opacity="1" transform="matrix(1,0,0,1,0,0)" fill="#ffffff" class="slogan-text-1" data-fill-palette-color="secondary" id="text-1"></path></svg></g></svg></g></svg></g></svg></g></svg></g><defs></defs></svg><rect width="239.12108734844577" height="280" fill="none" stroke="none" visibility="hidden"></rect></g></svg></g></svg>