<svg xmlns="http://www.w3.org/2000/svg" version="1.1" xmlns:xlink="http://www.w3.org/1999/xlink" xmlns:svgjs="http://svgjs.dev/svgjs" width="2000" height="2958" viewBox="0 0 2000 2958"><g transform="matrix(1,0,0,1,-1.6928330393733404,1.1975708502022826)"><svg viewBox="0 0 167 247" data-background-color="#ffffff" preserveAspectRatio="xMidYMid meet" height="2958" width="2000" xmlns="http://www.w3.org/2000/svg" xmlns:xlink="http://www.w3.org/1999/xlink"><g id="tight-bounds" transform="matrix(1,0,0,1,0.1413515587876759,-0.09999999999999432)"><svg viewBox="0 0 166.71729688242468 247.2" height="247.2" width="166.71729688242468"><g><svg viewBox="0 0 166.71729688242468 247.2" height="247.2" width="166.71729688242468"><g><svg viewBox="0 0 224.38070432 332.70039249149625" height="247.2" width="166.71729688242468"><g><svg viewBox="0 0 224.38070432 332.70039249149625" height="332.70039249149625" width="224.38070432"><g id="textblocktransform"><svg viewBox="0 0 224.38070432 332.70039249149625" height="332.70039249149625" width="224.38070432" id="textblock"><g><svg viewBox="0 0 224.38070432 245.672304" height="245.672304" width="224.38070432"><g transform="matrix(1,0,0,1,0,0)"><svg width="224.38070432" viewBox="1.37 -42.19 40.13 43.949999999999996" height="245.672304" data-palette-color="#915eff"><g class="wordmark-text-0" data-fill-palette-color="primary" id="text-0"><path d="M32.79-26.61L32.79-26.61 31.35-25.66Q30.03-27.61 27.92-28.75 25.81-29.88 23.34-29.88L23.34-29.88Q19.34-29.88 16.5-27.05 13.67-24.22 13.67-20.21 13.67-16.21 16.5-13.38 19.34-10.55 23.34-10.55L23.34-10.55Q25.81-10.55 27.92-11.69 30.03-12.84 31.35-14.79L31.35-14.79 32.76-13.77Q31.2-11.47 28.71-10.13 26.22-8.79 23.34-8.79L23.34-8.79Q21.02-8.79 18.91-9.69 16.8-10.6 15.26-12.13 13.72-13.67 12.82-15.78 11.91-17.9 11.91-20.21 11.91-22.53 12.82-24.65 13.72-26.76 15.26-28.3 16.8-29.83 18.91-30.74 21.02-31.64 23.34-31.64L23.34-31.64Q26.25-31.64 28.74-30.29 31.23-28.93 32.79-26.61ZM35.69-28.61L35.69-28.61 34.23-27.66Q32.42-30.3 29.55-31.85 26.68-33.4 23.34-33.4L23.34-33.4Q19.75-33.4 16.72-31.63 13.7-29.86 11.93-26.83 10.16-23.8 10.16-20.21 10.16-16.63 11.93-13.6 13.7-10.57 16.72-8.8 19.75-7.03 23.34-7.03L23.34-7.03Q26.68-7.03 29.57-8.59 32.45-10.16 34.25-12.82L34.25-12.82 35.69-11.82Q33.64-8.79 30.38-7.03 27.12-5.27 23.34-5.27L23.34-5.27Q19.29-5.27 15.84-7.28 12.4-9.28 10.4-12.72 8.4-16.16 8.4-20.21 8.4-24.27 10.4-27.71 12.4-31.15 15.84-33.15 19.29-35.16 23.34-35.16L23.34-35.16Q27.12-35.16 30.38-33.4 33.64-31.64 35.69-28.61ZM38.62-30.57L38.62-30.57 37.16-29.61Q34.86-32.98 31.21-34.95 27.56-36.91 23.34-36.91L23.34-36.91Q19.95-36.91 16.85-35.6 13.75-34.28 11.51-32.04 9.28-29.81 7.96-26.71 6.64-23.61 6.64-20.21 6.64-16.82 7.96-13.72 9.28-10.62 11.51-8.39 13.75-6.15 16.85-4.83 19.95-3.52 23.34-3.52L23.34-3.52Q27.59-3.52 31.23-5.49 34.86-7.47 37.16-10.84L37.16-10.84 38.57-9.79Q36.04-6.08 32.02-3.92 28-1.76 23.34-1.76L23.34-1.76Q18.33-1.76 14.09-4.24 9.84-6.71 7.36-10.96 4.88-15.21 4.88-20.21 4.88-25.22 7.36-29.47 9.84-33.72 14.09-36.19 18.33-38.67 23.34-38.67L23.34-38.67Q28.03-38.67 32.06-36.49 36.08-34.3 38.62-30.57ZM41.5-32.57L41.5-32.57 40.04-31.62Q37.26-35.69 32.85-38.06 28.44-40.43 23.34-40.43L23.34-40.43Q19.24-40.43 15.49-38.83 11.74-37.23 9.03-34.52 6.32-31.81 4.72-28.06 3.13-24.32 3.13-20.21 3.13-16.11 4.72-12.37 6.32-8.62 9.03-5.91 11.74-3.2 15.49-1.6 19.24 0 23.34 0L23.34 0Q28.44 0 32.86-2.39 37.28-4.79 40.06-8.86L40.06-8.86 41.48-7.79Q38.45-3.39 33.67-0.82 28.88 1.76 23.34 1.76L23.34 1.76Q18.87 1.76 14.81 0.01 10.74-1.73 7.8-4.68 4.86-7.62 3.11-11.68 1.37-15.75 1.37-20.21 1.37-24.68 3.11-28.75 4.86-32.81 7.8-35.75 10.74-38.7 14.81-40.44 18.87-42.19 23.34-42.19L23.34-42.19Q28.91-42.19 33.69-39.6 38.48-37.01 41.5-32.57Z" fill="#915eff" data-fill-palette-color="primary"></path></g></svg></g></svg></g><g transform="matrix(1,0,0,1,42.85671452512,303.669638839104)"><svg viewBox="0 0 138.66727526976 29.030753652392242" height="29.030753652392242" width="138.66727526976"><g transform="matrix(1,0,0,1,0,0)"><svg width="138.66727526976" viewBox="1.85 -25.78 164.06 34.36" height="29.030753652392242" data-palette-color="#ffffff"><path d="M22.1-22.43L20.93-20.83Q20.73-20.55 20.53-20.4 20.33-20.25 19.95-20.25L19.95-20.25Q19.58-20.25 19.14-20.56 18.7-20.88 18.03-21.25 17.35-21.63 16.39-21.94 15.43-22.25 14.03-22.25L14.03-22.25Q12.18-22.25 10.75-21.59 9.33-20.93 8.36-19.68 7.4-18.43 6.91-16.65 6.43-14.88 6.43-12.68L6.43-12.68Q6.43-10.38 6.95-8.59 7.48-6.8 8.43-5.59 9.38-4.38 10.74-3.74 12.1-3.1 13.8-3.1L13.8-3.1Q15.43-3.1 16.48-3.49 17.53-3.88 18.23-4.35 18.93-4.83 19.38-5.21 19.83-5.6 20.28-5.6L20.28-5.6Q20.85-5.6 21.13-5.18L21.13-5.18 22.38-3.55Q20.73-1.53 18.25-0.59 15.78 0.35 13.03 0.35L13.03 0.35Q10.65 0.35 8.61-0.53 6.58-1.4 5.08-3.06 3.58-4.73 2.71-7.15 1.85-9.58 1.85-12.68L1.85-12.68Q1.85-15.5 2.64-17.9 3.43-20.3 4.94-22.04 6.45-23.78 8.68-24.75 10.9-25.73 13.78-25.73L13.78-25.73Q16.43-25.73 18.48-24.86 20.53-24 22.1-22.43L22.1-22.43ZM45.6-16.2L45.6 0 43.62 0Q42.97 0 42.57-0.2 42.17-0.4 42.05-1.05L42.05-1.05 41.55-3.4Q40.55-2.5 39.6-1.79 38.65-1.07 37.6-0.59 36.55-0.1 35.36 0.15 34.17 0.4 32.72 0.4L32.72 0.4Q31.25 0.4 29.96-0.01 28.67-0.43 27.72-1.25 26.77-2.08 26.21-3.34 25.65-4.6 25.65-6.33L25.65-6.33Q25.65-7.83 26.47-9.21 27.3-10.6 29.14-11.68 30.97-12.75 33.95-13.44 36.92-14.13 41.22-14.23L41.22-14.23 41.22-16.2Q41.22-19.15 39.96-20.66 38.7-22.18 36.22-22.18L36.22-22.18Q34.6-22.18 33.48-21.76 32.37-21.35 31.56-20.84 30.75-20.33 30.16-19.91 29.57-19.5 29-19.5L29-19.5Q28.55-19.5 28.21-19.74 27.87-19.98 27.67-20.33L27.67-20.33 26.87-21.75Q28.97-23.78 31.4-24.78 33.82-25.78 36.77-25.78L36.77-25.78Q38.9-25.78 40.55-25.08 42.2-24.38 43.32-23.13 44.45-21.88 45.02-20.1 45.6-18.32 45.6-16.2L45.6-16.2ZM34.05-2.73L34.05-2.73Q35.22-2.73 36.2-2.96 37.17-3.2 38.03-3.64 38.9-4.08 39.69-4.7 40.47-5.33 41.22-6.13L41.22-6.13 41.22-11.4Q38.15-11.3 36-10.91 33.85-10.53 32.5-9.9 31.15-9.28 30.54-8.43 29.92-7.58 29.92-6.53L29.92-6.53Q29.92-5.53 30.25-4.8 30.57-4.08 31.12-3.61 31.67-3.15 32.42-2.94 33.17-2.73 34.05-2.73ZM56.8 8.58L52.35 8.58 52.35-25.33 55-25.33Q55.95-25.33 56.2-24.4L56.2-24.4 56.57-21.4Q58.2-23.38 60.28-24.58 62.37-25.78 65.1-25.78L65.1-25.78Q67.27-25.78 69.05-24.94 70.82-24.1 72.07-22.46 73.32-20.83 74-18.4 74.67-15.98 74.67-12.83L74.67-12.83Q74.67-10.03 73.92-7.61 73.17-5.2 71.77-3.44 70.37-1.68 68.33-0.66 66.3 0.35 63.75 0.35L63.75 0.35Q61.4 0.35 59.73-0.43 58.07-1.2 56.8-2.63L56.8-2.63 56.8 8.58ZM63.62-22.18L63.62-22.18Q61.45-22.18 59.81-21.18 58.17-20.18 56.8-18.35L56.8-18.35 56.8-6.1Q58.02-4.45 59.48-3.78 60.95-3.1 62.75-3.1L62.75-3.1Q66.27-3.1 68.17-5.63 70.07-8.15 70.07-12.83L70.07-12.83Q70.07-15.3 69.63-17.07 69.2-18.85 68.37-19.99 67.55-21.13 66.35-21.65 65.15-22.18 63.62-22.18ZM84.39 0L79.94 0 79.94-25.33 82.59-25.33Q83.54-25.33 83.79-24.4L83.79-24.4 84.12-21.8Q85.52-23.53 87.26-24.63 88.99-25.73 91.29-25.73L91.29-25.73Q93.87-25.73 95.46-24.3 97.04-22.88 97.74-20.45L97.74-20.45Q98.27-21.83 99.13-22.83 99.99-23.83 101.07-24.48 102.14-25.13 103.36-25.43 104.57-25.73 105.82-25.73L105.82-25.73Q107.82-25.73 109.38-25.09 110.94-24.45 112.03-23.23 113.12-22 113.69-20.21 114.27-18.43 114.27-16.13L114.27-16.13 114.27 0 109.82 0 109.82-16.13Q109.82-19.1 108.52-20.64 107.22-22.18 104.74-22.18L104.74-22.18Q103.64-22.18 102.66-21.79 101.67-21.4 100.92-20.65 100.17-19.9 99.73-18.76 99.29-17.63 99.29-16.13L99.29-16.13 99.29 0 94.84 0 94.84-16.13Q94.84-19.18 93.62-20.68 92.39-22.18 90.04-22.18L90.04-22.18Q88.39-22.18 86.98-21.29 85.57-20.4 84.39-18.88L84.39-18.88 84.39 0ZM131.02-25.73L131.02-25.73Q133.29-25.73 135.22-24.96 137.14-24.2 138.54-22.76 139.94-21.33 140.73-19.21 141.52-17.1 141.52-14.4L141.52-14.4Q141.52-13.35 141.29-13 141.07-12.65 140.44-12.65L140.44-12.65 123.59-12.65Q123.64-10.25 124.24-8.47 124.84-6.7 125.89-5.51 126.94-4.33 128.39-3.74 129.84-3.15 131.64-3.15L131.64-3.15Q133.32-3.15 134.53-3.54 135.74-3.93 136.62-4.38 137.49-4.83 138.08-5.21 138.67-5.6 139.09-5.6L139.09-5.6Q139.64-5.6 139.94-5.18L139.94-5.18 141.19-3.55Q140.37-2.55 139.22-1.81 138.07-1.07 136.75-0.6 135.44-0.13 134.04 0.11 132.64 0.35 131.27 0.35L131.27 0.35Q128.64 0.35 126.43-0.54 124.22-1.43 122.6-3.14 120.99-4.85 120.09-7.38 119.19-9.9 119.19-13.18L119.19-13.18Q119.19-15.83 120-18.13 120.82-20.43 122.34-22.11 123.87-23.8 126.07-24.76 128.27-25.73 131.02-25.73ZM131.12-22.45L131.12-22.45Q127.89-22.45 126.04-20.59 124.19-18.73 123.74-15.43L123.74-15.43 137.52-15.43Q137.52-16.98 137.09-18.26 136.67-19.55 135.84-20.49 135.02-21.43 133.83-21.94 132.64-22.45 131.12-22.45ZM165.64-22.43L164.46-20.83Q164.26-20.55 164.06-20.4 163.86-20.25 163.49-20.25L163.49-20.25Q163.11-20.25 162.68-20.56 162.24-20.88 161.56-21.25 160.89-21.63 159.93-21.94 158.96-22.25 157.56-22.25L157.56-22.25Q155.71-22.25 154.29-21.59 152.86-20.93 151.9-19.68 150.94-18.43 150.45-16.65 149.96-14.88 149.96-12.68L149.96-12.68Q149.96-10.38 150.49-8.59 151.01-6.8 151.96-5.59 152.91-4.38 154.28-3.74 155.64-3.1 157.34-3.1L157.34-3.1Q158.96-3.1 160.01-3.49 161.06-3.88 161.76-4.35 162.46-4.83 162.91-5.21 163.36-5.6 163.81-5.6L163.81-5.6Q164.39-5.6 164.66-5.18L164.66-5.18 165.91-3.55Q164.26-1.53 161.79-0.59 159.31 0.35 156.56 0.35L156.56 0.35Q154.19 0.35 152.15-0.53 150.11-1.4 148.61-3.06 147.11-4.73 146.25-7.15 145.39-9.58 145.39-12.68L145.39-12.68Q145.39-15.5 146.18-17.9 146.96-20.3 148.48-22.04 149.99-23.78 152.21-24.75 154.44-25.73 157.31-25.73L157.31-25.73Q159.96-25.73 162.01-24.86 164.06-24 165.64-22.43L165.64-22.43Z" opacity="1" transform="matrix(1,0,0,1,0,0)" fill="#ffffff" class="slogan-text-1" data-fill-palette-color="secondary" id="text-1"></path></svg></g></svg></g></svg></g></svg></g><g></g></svg></g></svg></g><defs></defs></svg><rect width="166.71729688242468" height="247.2" fill="none" stroke="none" visibility="hidden"></rect></g></svg></g></svg>