<svg xmlns="http://www.w3.org/2000/svg" version="1.1" xmlns:xlink="http://www.w3.org/1999/xlink" xmlns:svgjs="http://svgjs.dev/svgjs" width="2000" height="1607" viewBox="0 0 2000 1607"><g transform="matrix(1,0,0,1,0,0)"><svg viewBox="0 0 448 360" data-background-color="#001f3f" preserveAspectRatio="xMidYMid meet" height="1607" width="2000" xmlns="http://www.w3.org/2000/svg" xmlns:xlink="http://www.w3.org/1999/xlink"><g id="tight-bounds" transform="matrix(1,0,0,1,0,0)"><svg viewBox="0 0 448 360" height="360" width="448"><g><svg></svg></g><g><svg viewBox="0 0 448 360" height="360" width="448"><g><path xmlns="http://www.w3.org/2000/svg" d="M193.855 44.683c1.378 0 2.494 1.116 2.495 2.494 0 1.378-1.116 2.494-2.495 2.495h-23.846l-17.167 17.167c-0.973 0.973-2.551 0.973-3.53 0-0.973-0.973-0.973-2.551 0-3.529l13.644-13.645h-40.378c-11.518 0-19.151 2.688-23.815 8.113-4.739 5.519-6.66 14.056-6.66 25.63 0 0.069 0 0.137-0.006 0.206l0.212 36.692 14.692-14.692c0.973-0.973 2.551-0.973 3.53 0 0.973 0.973 0.973 2.551 0 3.53l-18.178 18.178c0.206 35.832 0.193 71.358-0.013 107.19 25.486 25.2 50.617 50.312 75.811 75.791h25.38c1.378 0 2.494 1.116 2.495 2.495 0 1.378-1.116 2.494-2.495 2.494h-20.448l25.942 26.241 0.006-0.006c8.188 8.188 15.577 12.859 22.824 13.413 7.146 0.543 14.442-2.956 22.586-11.093l28.555-28.555h-20.722c-1.378 0-2.494-1.116-2.495-2.494 0-1.378 1.116-2.494 2.495-2.495h25.711l16.625-16.625c0.973-0.973 2.551-0.973 3.529 0 0.973 0.973 0.973 2.551 0 3.53l-13.101 13.102h40.377c11.518 0 19.151-2.688 23.815-8.113 4.739-5.519 6.66-14.056 6.66-25.63h0.013l-0.212-36.898-16.014 16.014c-0.973 0.973-2.551 0.973-3.53 0-0.973-0.973-0.973-2.551 0-3.53l19.5-19.5c-0.206-35.832-0.193-71.358 0.013-107.19-25.486-25.2-50.617-50.312-75.811-75.791h-26.147c-1.378 0-2.494-1.116-2.495-2.495 0-1.378 1.116-2.494 2.495-2.494h21.215l-25.824-26.123c-0.044-0.037-0.081-0.075-0.124-0.112-8.188-8.188-15.577-12.859-22.824-13.413-7.146-0.543-14.442 2.956-22.586 11.093l-28.555 28.555h18.858zM122.578 44.683h45.367l32.078-32.078c9.248-9.248 17.81-13.195 26.484-12.534 8.568 0.649 16.956 5.824 25.985 14.854 0.05 0.05 0.094 0.094 0.137 0.143l29.278 29.615h43.508c13.071 0 21.919 3.268 27.594 9.871 5.6 6.517 7.864 16.101 7.864 28.867 0 0.081-0.006 0.156-0.012 0.23l-0.225 39.742 28.43 28.112 0.006-0.006c9.03 9.03 14.206 17.411 14.854 25.985 0.661 8.674-3.293 17.236-12.534 26.484l-30.768 30.768 0.237 41.843h0.012c0 12.765-2.27 22.35-7.864 28.867-5.675 6.604-14.524 9.872-27.594 9.871h-45.366l-32.078 32.078c-9.248 9.248-17.81 13.195-26.484 12.534-8.568-0.649-16.956-5.824-25.985-14.854l0.006-0.006-29.421-29.758h-43.509c-13.071 0-21.919-3.268-27.594-9.872-5.6-6.517-7.864-16.101-7.863-28.866h0.012l0.231-39.972-28.293-27.969c-0.05-0.044-0.1-0.087-0.143-0.137-9.03-9.03-14.206-17.411-14.854-25.985-0.661-8.674 3.293-17.236 12.534-26.484l30.768-30.768-0.237-41.607c-0.006-0.075-0.012-0.156-0.012-0.23 0-12.765 2.27-22.35 7.864-28.867 5.675-6.604 14.524-9.872 27.594-9.871zM87.682 179.997l-0.274-47.724-27.276 27.276c-8.138 8.138-11.636 15.44-11.094 22.587 0.549 7.246 5.226 14.642 13.413 22.823 0.037 0.037 0.081 0.081 0.113 0.125l24.837 24.551 0.281-49.644zM92.303 241.483l-0.2 35.09h0.013c0 11.58 1.921 20.117 6.66 25.63 4.664 5.432 12.297 8.113 23.815 8.113h38.576l-33.55-33.936-35.308-34.903zM325.415 49.672h-38.575l33.549 33.936 35.308 34.902 0.2-34.884c-0.006-0.069-0.006-0.137-0.007-0.205 0-11.58-1.921-20.117-6.66-25.63-4.664-5.432-12.297-8.113-23.815-8.113zM360.599 130.352l-0.281 49.645 0.274 47.724 27.276-27.276c8.138-8.138 11.636-15.44 11.094-22.587-0.549-7.252-5.226-14.642-13.413-22.824l0.006-0.006-24.956-24.669z" fill="#4790fc" fill-rule="nonzero" stroke="none" stroke-width="1" stroke-linecap="butt" stroke-linejoin="miter" stroke-miterlimit="10" stroke-dasharray="" stroke-dashoffset="0" font-family="none" font-weight="none" font-size="none" text-anchor="none" style="mix-blend-mode: normal" data-fill-palette-color="tertiary"></path></g><g transform="matrix(1,0,0,1,112,146.13820415607816)"><svg viewBox="0 0 224 67.72359168784368" height="67.72359168784368" width="224"><g><svg viewBox="0 0 350.82197724326227 106.06662652653874" height="67.72359168784368" width="224"><g transform="matrix(1,0,0,1,126.8219772432623,31.05379107896903)"><svg viewBox="0 0 224 43.95904436860068" height="43.95904436860068" width="224"><g id="textblocktransform"><svg viewBox="0 0 224 43.95904436860068" height="43.95904436860068" width="224" id="textblock"><g><svg viewBox="0 0 224 43.95904436860068" height="43.95904436860068" width="224"><g transform="matrix(1,0,0,1,0,0)"><svg width="224" viewBox="1.2699999809265137 -33.08000183105469 171.6699981689453 33.69000244140625" height="43.95904436860068" data-palette-color="#4790fc"><g class="wordmark-text-0" data-fill-palette-color="primary" id="text-0"><path d="M18.75-33.08L18.75-33.08Q23.32-33.08 26.54-31.49L26.54-31.49 26.54-24.02 26.49-23.97Q25.12-26.07 20.73-26.76L20.73-26.76Q19.43-26.98 17.46-26.98 15.48-26.98 13.57-26.23 11.67-25.49 10.45-24.12L10.45-24.12Q8.08-21.46 8.08-16.53L8.08-16.53Q8.08-10.79 11.08-7.98L11.08-7.98Q13.57-5.64 17.68-5.64L17.68-5.64Q22.31-5.64 25.2-7.62L25.2-7.62Q26.25-8.33 26.98-9.38L26.98-9.38 27.05-9.33 27.05-2.49Q23.32 0.61 16.99 0.61L16.99 0.61Q9.55 0.61 5.32-4.13L5.32-4.13Q1.27-8.64 1.27-16.09L1.27-16.09Q1.27-23.97 5.71-28.52L5.71-28.52Q10.21-33.08 18.75-33.08ZM37.86-7.03L35.57 0.2Q33.47 0 30.66 0L30.66 0 28.73 0 39.35-29.76Q40.06-31.76 40.06-32.09 40.06-32.42 40.04-32.5L40.04-32.5 40.06-32.54Q41.65-32.47 43.43-32.47L43.43-32.47Q44.89-32.47 46.95-32.52L46.95-32.52 46.97-32.47Q46.92-32.37 46.92-32.2L46.92-32.2Q46.92-31.74 47.65-29.74L47.65-29.74 58.49 0.07Q58.01 0.05 57.35 0.05L57.35 0.05Q57.35 0.05 56.08 0L56.08 0Q55.47 0 54.98 0L54.98 0 51.19 0 48.9-7.03 37.86-7.03ZM39.72-12.89L46.99-12.89 43.31-24.24 39.72-12.89ZM61.96 0L61.96-32.64Q65.35-33.08 68.92-33.08L68.92-33.08Q75.56-33.08 79.01-29.97 82.47-26.86 82.47-20.65L82.47-20.65Q82.47-15.11 78.68-11.89L78.68-11.89Q75.14-8.86 69.58-8.86L69.58-8.86Q68.94-8.86 68.18-8.94L68.18-8.94 68.18 0 61.96 0ZM69.65-27.2L69.65-27.2Q68.92-27.2 68.18-27.15L68.18-27.15 68.18-14.31Q68.96-14.21 70.09-14.21 71.21-14.21 72.43-14.69 73.65-15.16 74.48-16.02L74.48-16.02Q76.22-17.8 76.22-20.7L76.22-20.7Q76.22-27.2 69.65-27.2ZM94.06-20.58L94.06 0.15Q92.89 0 89.54 0L89.54 0 87.59 0 87.59-32.57Q89.15-32.47 91.03-32.47 92.91-32.47 93.69-32.67L93.69-32.67 101.9-18.73 109.78-32.67Q110.56-32.47 112.76-32.47 114.96-32.47 116.52-32.57L116.52-32.57 116.52 0 114.57 0Q111.22 0 110.05 0.15L110.05 0.15 110.05-21.73 102.07-7.45 94.06-20.58ZM131.41-5.86L141.37-5.86Q142.89-5.86 143.47-6.15L143.47-6.15 143.57-6.13 143.32 0 125.04 0 125.04-32.64Q125.7-32.59 126.5-32.57L126.5-32.57 128.21-32.52Q129.92-32.47 131.92-32.47L131.92-32.47Q137.51-32.47 142.98-32.67L142.98-32.67Q142.71-30.52 142.71-26.93L142.71-26.93Q142.71-26.54 142.76-26.34L142.76-26.34 142.71-26.27Q141.45-26.64 139.1-26.64L139.1-26.64 131.41-26.64 131.41-20.41 137.2-20.41Q139.88-20.41 140.42-20.56L140.42-20.56 140.49-14.53Q139.32-14.65 137.47-14.65L137.47-14.65 131.41-14.65 131.41-5.86ZM164.64-33.08L164.64-33.08Q169.2-33.08 172.42-31.49L172.42-31.49 172.42-24.02 172.38-23.97Q171.01-26.07 166.61-26.76L166.61-26.76Q165.32-26.98 163.34-26.98 161.36-26.98 159.46-26.23 157.56-25.49 156.34-24.12L156.34-24.12Q153.97-21.46 153.97-16.53L153.97-16.53Q153.97-10.79 156.97-7.98L156.97-7.98Q159.46-5.64 163.56-5.64L163.56-5.64Q168.2-5.64 171.08-7.62L171.08-7.62Q172.13-8.33 172.86-9.38L172.86-9.38 172.94-9.33 172.94-2.49Q169.2 0.61 162.88 0.61L162.88 0.61Q155.43 0.61 151.21-4.13L151.21-4.13Q147.16-8.64 147.16-16.09L147.16-16.09Q147.16-23.97 151.6-28.52L151.6-28.52Q156.09-33.08 164.64-33.08Z" fill="#4790fc" data-fill-palette-color="primary"></path></g></svg></g></svg></g></svg></g></svg></g><g><svg viewBox="0 0 106.06662652653874 106.06662652653874" height="106.06662652653874" width="106.06662652653874"><g><svg></svg></g><g id="icon-0"><svg viewBox="0 0 106.06662652653874 106.06662652653874" height="106.06662652653874" width="106.06662652653874"><g><path d="M0 53.033c0-29.289 23.744-53.033 53.033-53.033 29.289 0 53.033 23.744 53.034 53.033 0 29.289-23.744 53.033-53.034 53.034-29.289 0-53.033-23.744-53.033-53.034zM53.033 102.102c27.1 0 49.069-21.969 49.069-49.069 0-27.1-21.969-49.069-49.069-49.069-27.1 0-49.069 21.969-49.069 49.069 0 27.1 21.969 49.069 49.069 49.069z" data-fill-palette-color="accent" fill="#ee6668" stroke="transparent"></path></g><g transform="matrix(1,0,0,1,23.23057172708269,23.23057172708269)"><svg viewBox="0 0 59.60548307237336 59.60548307237336" height="59.60548307237336" width="59.60548307237336"><g><svg xmlns="http://www.w3.org/2000/svg" xmlns:xlink="http://www.w3.org/1999/xlink" version="1.0" x="0" y="0" viewBox="10 10 80 80" enable-background="new 0 0 100 100" xml:space="preserve" height="59.60548307237336" width="59.60548307237336" class="icon-s-0" data-fill-palette-color="accent" id="s-0"><path fill="none" stroke="#EE6668" stroke-linecap="round" stroke-linejoin="round" stroke-miterlimit="10" d="M78.33 56.667l1.945 15.555L78.33 56.667z"></path><path fill="none" stroke="#EE6668" stroke-linecap="round" stroke-linejoin="round" stroke-miterlimit="10" d="M75.689 22.862v-3.157C75.021 14.236 70.37 10 64.722 10c-5.647 0-10.298 4.235-10.968 9.704v3.157c-1.433 0.509-2.461 1.859-2.461 3.461 0 3.145 1.596 5.689 3.582 5.778 1.828 5.631 5.549 9.496 9.847 9.496 4.297 0 8.016-3.864 9.846-9.496 1.986-0.089 3.583-2.633 3.583-5.778C78.15 24.721 77.118 23.371 75.689 22.862z"></path><path fill="none" stroke="#EE6668" stroke-linecap="round" stroke-linejoin="round" stroke-miterlimit="10" d="M63.359 24.58h-6.806v1.945c0 1.071 0.877 1.947 1.946 1.947h2.917c1.069 0 1.942-0.876 1.942-1.947V24.58z"></path><path fill="none" stroke="#EE6668" stroke-linecap="round" stroke-linejoin="round" stroke-miterlimit="10" d="M56.554 24.58l-2.8-1.718L56.554 24.58z"></path><path fill="none" stroke="#EE6668" stroke-linecap="round" stroke-linejoin="round" stroke-miterlimit="10" d="M66.081 24.58h6.806v1.945c0 1.071-0.875 1.947-1.944 1.947h-2.916c-1.071 0-1.945-0.876-1.945-1.947V24.58z"></path><path fill="none" stroke="#EE6668" stroke-linecap="round" stroke-linejoin="round" stroke-miterlimit="10" d="M72.889 24.58l2.801-1.718L72.889 24.58z"></path><path fill="none" stroke="#EE6668" stroke-linecap="round" stroke-linejoin="round" stroke-miterlimit="10" d="M63.359 24.58h2.722H63.359z"></path><path fill="none" stroke="#EE6668" stroke-linecap="round" stroke-linejoin="round" stroke-miterlimit="10" d="M62.292 35.745c1.342 1.341 3.519 1.341 4.86 0C65.811 37.086 63.634 37.086 62.292 35.745z"></path><path fill="none" stroke="#EE6668" stroke-linecap="round" stroke-linejoin="round" stroke-miterlimit="10" d="M75.689 22.862c-3.038 0-5.788-1.231-7.78-3.221l0 0c-2.147-2.147-4.961-3.222-7.777-3.222-3.522 0-6.378 2.885-6.378 6.443v-3.157C54.424 14.236 59.074 10 64.722 10c5.648 0 10.299 4.235 10.968 9.704V22.862z"></path><path fill="none" stroke="#EE6668" stroke-linecap="round" stroke-linejoin="round" stroke-miterlimit="10" d="M64.722 48.889c3.219 0 6.066-1.571 7.834-3.981-0.535-0.258-1.031-0.585-1.446-1.002-0.941-0.937-1.52-2.235-1.52-3.668v-0.429c-1.469 1.139-3.119 1.788-4.868 1.788-1.748 0-3.398-0.649-4.866-1.788v0.429c0 1.433-0.583 2.732-1.521 3.668-0.417 0.417-0.911 0.744-1.449 0.999C58.656 47.317 61.503 48.889 64.722 48.889z"></path><path fill="none" stroke="#EE6668" stroke-linecap="round" stroke-linejoin="round" stroke-miterlimit="10" d="M72.792 45.033c-0.084-0.034-0.155-0.089-0.236-0.125-1.768 2.41-4.615 3.981-7.834 3.981s-6.065-1.571-7.836-3.984c-0.078 0.04-0.151 0.092-0.236 0.128l-3.415 1.415c2.415 3.8 6.651 6.33 11.486 6.33 4.837 0 9.072-2.529 11.489-6.33L72.792 45.033z"></path><path fill="none" stroke="#EE6668" stroke-linecap="round" stroke-linejoin="round" stroke-miterlimit="10" d="M58.889 85.556H10v2.224C10 89.002 11.001 90 12.223 90h44.444c1.222 0 2.222-0.998 2.222-2.221V85.556z"></path><path fill="none" stroke="#EE6668" stroke-linecap="round" stroke-linejoin="round" stroke-miterlimit="10" d="M58.889 82.219c0 1.833-1.5 3.333-3.333 3.333H13.335c-1.834 0-3.335-1.5-3.335-3.333V57.774c0-1.833 1.5-3.335 3.335-3.335h42.221c1.833 0 3.333 1.502 3.333 3.335V82.219z"></path><path fill="none" stroke="#EE6668" stroke-linecap="round" stroke-linejoin="round" stroke-miterlimit="10" d="M55.556 54.439c1.833 0 3.333 1.502 3.333 3.335v14.447H90l-0.004-14.826c0-2.469-1-4.704-2.614-6.321L76.21 46.448c-2.417 3.8-6.652 6.33-11.489 6.33-4.835 0-9.071-2.529-11.486-6.33l-11.172 4.626c-0.938 0.938-1.66 2.089-2.107 3.365H55.556z"></path><circle fill="none" stroke="#EE6668" stroke-linecap="round" stroke-linejoin="round" stroke-miterlimit="10" cx="34.444" cy="70" r="3.3"></circle></svg></g></svg></g></svg></g></svg></g></svg></g></svg></g></svg></g><defs></defs></svg><rect width="448" height="360" fill="none" stroke="none" visibility="hidden"></rect></g></svg></g></svg>