<svg xmlns="http://www.w3.org/2000/svg" version="1.1" xmlns:xlink="http://www.w3.org/1999/xlink" xmlns:svgjs="http://svgjs.dev/svgjs" width="2000" height="1247" viewBox="0 0 2000 1247"><g transform="matrix(1,0,0,1,-1.2121212121212466,0.504858299595071)"><svg viewBox="0 0 396 247" data-background-color="#ffffff" preserveAspectRatio="xMidYMid meet" height="1247" width="2000" xmlns="http://www.w3.org/2000/svg" xmlns:xlink="http://www.w3.org/1999/xlink"><g id="tight-bounds" transform="matrix(1,0,0,1,0.2400000000000091,-0.09999999999999432)"><svg viewBox="0 0 395.52 247.2" height="247.2" width="395.52"><g><svg></svg></g><g><svg viewBox="0 0 395.52 247.2" height="247.2" width="395.52"><g transform="matrix(1,0,0,1,75.54432,105.6833058911141)"><svg viewBox="0 0 244.43135999999998 35.833388217771784" height="35.833388217771784" width="244.43135999999998"><g><svg viewBox="0 0 316.5786723502008 46.41011066579804" height="35.833388217771784" width="244.43135999999998"><g><rect width="4.1644892289312185" height="46.41011066579804" x="57.081018857051724" y="0" fill="#233565" opacity="1" stroke-width="0" stroke="transparent" fill-opacity="1" class="rect-o-0" data-fill-palette-color="primary" rx="1%" id="o-0" data-palette-color="#233565"></rect></g><g transform="matrix(1,0,0,1,72.14731235020079,0.11544803648208202)"><svg viewBox="0 0 244.43135999999998 46.17921459283387" height="46.17921459283387" width="244.43135999999998"><g id="textblocktransform"><svg viewBox="0 0 244.43135999999998 46.17921459283387" height="46.17921459283387" width="244.43135999999998" id="textblock"><g><svg viewBox="0 0 244.43135999999998 46.17921459283387" height="46.17921459283387" width="244.43135999999998"><g transform="matrix(1,0,0,1,0,0)"><svg width="244.43135999999998" viewBox="0.9000000357627869 -34.150001525878906 184.19000244140625 34.80000305175781" height="46.17921459283387" data-palette-color="#233565"><path d="M25.8-9.45L25.95-0.65Q20.65 0.65 15.1 0.65 9.55 0.65 6.55-0.93 3.55-2.5 2.23-6.2 0.9-9.9 0.9-16.85L0.9-16.85Q0.9-26.8 3.98-30.48 7.05-34.15 15.7-34.15L15.7-34.15Q19.3-34.15 24.2-33.15L24.2-33.15 25.95-32.8 25.65-23.85Q21.55-24.35 18.07-24.35 14.6-24.35 13.6-23.03 12.6-21.7 12.6-17.55 12.6-13.4 13.08-11.8 13.55-10.2 14.6-9.68 15.65-9.15 18-9.15L18-9.15 25.8-9.45ZM37.8 0L26.4 0 33.8-33.5 51.35-33.5 58.9 0 47.2 0 46.25-3.85 38.6-3.85 37.8 0ZM43.25-24.4L42-24.4 40.1-12.7 45.05-12.7 43.25-24.4ZM73.25-7.1L73.25-7.1 71.7-7.1 71.7 0 60.1 0 60.1-33.5 73.25-33.5Q81.2-33.5 84.82-30.75 88.45-28 88.45-20.43 88.45-12.85 84.8-9.98 81.15-7.1 73.25-7.1ZM71.7-24.35L71.7-16.25 72.75-16.25Q74.9-16.25 75.82-17.2 76.75-18.15 76.75-20.45 76.75-22.75 75.87-23.55 75-24.35 72.75-24.35L72.75-24.35 71.7-24.35ZM102.29 0L90.69 0 90.69-33.5 107.94-33.5 110.54-20.7 112.69-33.5 130.44-33.5 130.44 0 118.84 0 118.84-17.25 118.29-17.25 115.39-0.35 105.69-0.35 102.84-17.25 102.29-17.25 102.29 0ZM158.54 0L133.44 0 133.44-33.5 158.54-33.5 158.54-24.25 145.04-24.25 145.04-21.4 155.54-21.4 155.54-12.25 145.04-12.25 145.04-9.25 158.54-9.25 158.54 0ZM184.94-9.45L185.09-0.65Q179.79 0.65 174.24 0.65 168.69 0.65 165.69-0.93 162.69-2.5 161.36-6.2 160.04-9.9 160.04-16.85L160.04-16.85Q160.04-26.8 163.11-30.48 166.19-34.15 174.84-34.15L174.84-34.15Q178.44-34.15 183.34-33.15L183.34-33.15 185.09-32.8 184.79-23.85Q180.69-24.35 177.21-24.35 173.74-24.35 172.74-23.03 171.74-21.7 171.74-17.55 171.74-13.4 172.21-11.8 172.69-10.2 173.74-9.68 174.79-9.15 177.14-9.15L177.14-9.15 184.94-9.45Z" opacity="1" transform="matrix(1,0,0,1,0,0)" fill="#233565" class="wordmark-text-0" data-fill-palette-color="primary" id="text-0"></path></svg></g></svg></g></svg></g></svg></g><g transform="matrix(1,0,0,1,0,0.11544803648208202)"><svg viewBox="0 0 46.17921459283387 46.17921459283387" height="46.17921459283387" width="46.17921459283387"><g><svg xmlns="http://www.w3.org/2000/svg" xmlns:xlink="http://www.w3.org/1999/xlink" version="1.1" x="0" y="0" viewBox="2 2 20 20" enable-background="new 0 0 24 24" xml:space="preserve" height="46.17921459283387" width="46.17921459283387" class="icon-icon-0" data-fill-palette-color="accent" id="icon-0"><path d="M22 4.6V2h-2v1.4l-2 1V7h-4V5.6l2-1V2h-2v1.4l-2 1V7H9.6l-2-4H2v2h4.4l2 4H11v2H6.5l-2-3H2v2h1.5l1.3 2-1.3 2H2v2h2.5l2-3H11v2H8.2l-2 4H2v2h5.5l3-4H12v2.6l2 1V22h2v-2.6l-2-1V17h4v2.6l2 1V22h2v-2.6l-2-1V17h2V7h-2V5.6L22 4.6zM19 14h-5v-4h5V14z" fill="#8bd8bc" data-fill-palette-color="accent"></path></svg></g></svg></g></svg></g></svg></g><path d="M180.356 99.683L180.356 36.57 6.295 36.57 6.295 210.63 180.356 210.63 180.356 147.517 177.14 147.517 177.14 207.415 9.511 207.415 9.511 39.785 177.14 39.785 177.14 99.683Z" fill="#233565" stroke="transparent" data-fill-palette-color="primary"></path></svg></g><defs></defs></svg><rect width="395.52" height="247.2" fill="none" stroke="none" visibility="hidden"></rect></g></svg></g></svg>